<svg xmlns="http://www.w3.org/2000/svg" width="100" height="100" viewBox="0 0 100 100"><path fill-rule="evenodd" clip-rule="evenodd" d="M80 43.6h-4c-1.2 0-2-1-2-2s.8-2 2-2h4c1 0 2 1 2 2s-1 2-2 2zm-8-13.3c-.7.8-2 .8-2.7 0-.8-.8-.8-2 0-2.8l2.8-2.8c1-.8 2-.8 3 0s1 2 0 2.8l-3 2.8zM69 46c2 2 3 4.7 3 7.6 0 5.3-3.4 9.7-8 11.3v-5c2.3-1.7 4-4 4-7 0-4.7-3.6-8-8-8-1.7 0-3 .2-4.4 1-1.2-5-6-9-11.6-9-7 0-12 5.4-12 12 0 3.6 1 7 4 9v5c-5-3-8-8-8-14 0-8.8 7-16 16-16 1 0 3 .3 4 .7 2.3-2.8 5.7-4.7 9.5-4.7 6.6 0 12 5.8 12 12 0 2-.3 3-1 4.7zM58 33.5c-2.3 0-4.3 1-5.7 2.4 2.3 1 4.3 3 5.6 5h2c2 0 4 .5 5 1.5V41c0-4.3-3.4-8-8-8zm0-8c-1.2 0-2-1-2-2v-4c0-1 .8-2 2-2 1 0 2 1 2 2v4c0 1-1 2-2 2zm-14.2 4.7L41 27.5c-.8-.8-.8-2 0-2.8.8-.8 2-.8 2.8 0l2.8 2.8c.8.8.8 2 0 2.8-.8.8-2 .8-2.8 0zm-2 23.3c1.3 0 2 1 2 2v16c0 1-.7 2-2 2-1 0-2-1-2-2v-16c0-1 1-2 2-2zm8 4c1.2 0 2 1 2 2v16c0 1-.8 2-2 2-1 0-2-1-2-2v-16c0-1 1-2 2-2zm8-4c1.2 0 2 1 2 2v16c0 1-.8 2-2 2-1 0-2-1-2-2v-16c0-1 1-2 2-2z"/></svg>