<svg xmlns="http://www.w3.org/2000/svg" width="100" height="100" viewBox="0 0 100 100"><path fill-rule="evenodd" clip-rule="evenodd" d="M80 43.6h-4c-1.2 0-2-1-2-2s.8-2 2-2h4c1 0 2 1 2 2s-1 2-2 2zm-8-13.3c-.7.8-2 .8-2.7 0-.8-.8-.8-2 0-2.8l2.8-2.8c1-.8 2-.8 3 0 .8.8.8 2 0 2.8l-3 2.8zM69 46c2 2 3 4.7 3 7.6 0 6.7-5.4 12-12 12H44c-9 0-16-7-16-16s7-16 16-16c1.5 0 3 .3 4.5.7 2.2-2.8 5.6-4.7 9.4-4.7 6.5 0 12 5.4 12 12 0 1.6-.5 3-1 4.3zm-37 3.6c0 6.7 5.3 12 12 12h16c4.4 0 8-3.5 8-8 0-4.4-3.6-8-8-8-1.7 0-3 .5-4.4 1.3-1.2-5.5-6-9.5-11.7-9.5-6.8 0-12 5.4-12 12zm26-16c-2.3 0-4.3 1-5.7 2.4 2.3 1.4 4.3 3.4 5.6 5.8l2-.2c2 0 4 .6 5.7 1.6v-1.6c0-4.4-3.4-8-8-8zm0-8c-1.2 0-2-1-2-2v-4c0-1 .8-2 2-2 1 0 2 1 2 2v4c0 1-1 2-2 2zm-14.2 4.7L41 27.5c-.8-.8-.8-2 0-2.8.8-.8 2-.8 2.8 0l2.8 2.8c.8.8.8 2 0 2.8-.7.8-2 .8-2.8 0z"/></svg>