<svg xmlns="http://www.w3.org/2000/svg" width="100" height="100" viewBox="0 0 100 100"><path fill-rule="evenodd" clip-rule="evenodd" d="M64 65v-4.4c2.4-1.4 4-4 4-7 0-4.4-3.6-8-8-8-1.6 0-3 .5-4.3 1.3-1.3-5.5-6-9.5-11.7-9.5-6.6 0-12 5.4-12 12 0 3.6 1.6 6.8 4 9v5c-4.8-3-8-8-8-14 0-8.8 7.2-16 16-16 6 0 11.2 3.4 14 8.2l2-.2c6.6 0 12 5.4 12 12 0 5.3-3.3 9.7-8 11.3zm-22-7.4c1 0 2 1 2 2s-1 2-2 2-2-1-2-2 1-2 2-2zm0 8c1 0 2 1 2 2s-1 2-2 2-2-1-2-2 1-2 2-2zm8-4c1 0 2 1 2 2s-1 2-2 2-2-1-2-2 1-2 2-2zm0 8c1 0 2 1 2 2s-1 2-2 2-2-1-2-2 1-2 2-2zm8-12c1 0 2 1 2 2s-1 2-2 2-2-1-2-2 1-2 2-2zm0 8c1 0 2 1 2 2s-1 2-2 2-2-1-2-2 1-2 2-2z"/></svg>