<svg xmlns="http://www.w3.org/2000/svg" width="100" height="100" viewBox="0 0 100 100"><path fill-rule="evenodd" clip-rule="evenodd" d="M64 65v-4.4c2.3-1.4 4-4 4-7 0-4.4-3.6-8-8-8-1.7 0-3 .5-4.4 1.3-1.2-5.7-6-9.7-11.7-9.7-7 0-12 5.4-12 12 0 3.6 1.2 6.8 4 9v5c-5-3-8-8-8-14 0-8.8 7-16 16-16 6 0 11 3.4 14 8.2l2-.2c6.3 0 12 5.4 12 12 0 5.3-3.7 9.7-8 11.3zM42 53.5c1 0 2 1 2 2v16c0 1-1 2-2 2s-2-1-2-2v-16c0-1 .8-2 2-2zm8 4c1 0 2 1 2 2v16c0 1-1 2-2 2s-2-1-2-2v-16c0-1 .8-2 2-2zm8-4c1 0 2 1 2 2v16c0 1-1 2-2 2s-2-1-2-2v-16c0-1 .8-2 2-2z"/></svg>