<svg xmlns="http://www.w3.org/2000/svg" width="100" height="100" viewBox="0 0 100 100"><path fill-rule="evenodd" clip-rule="evenodd" d="M72 52h-4c-1 0-2-1-2-2s1-2 2-2h4c1 0 2 1 2 2s-1 2-2 2zm-8-13.3c-.6.8-2 .8-2.7 0-.8-.8-.8-2 0-2.8l2.8-3c1-.8 2.3-.8 3 0 .8.7.8 2 0 3l-3 2.6zM50 62c-6.6 0-12-5.4-12-12s5.4-12 12-12 12 5.4 12 12-5.4 12-12 12zm0-20c-4.4 0-8 3.6-8 8s3.6 8 8 8 8-3.6 8-8-3.6-8-8-8zm0-8c-1 0-2-1-2-2v-4c0-1 1-2 2-2s2 1 2 2v4c0 1-1 2-2 2zm-14 4.7L33 36c-.7-1-.7-2.2 0-3s2-.7 3 0l2.7 3c.8.6.8 2 0 2.7s-2 .8-2.8 0zM34 50c0 1-1 2-2 2h-4c-1 0-2-1-2-2s1-2 2-2h4c1 0 2 1 2 2zm2 11.3c.6-.8 2-.8 2.7 0 .8.8.8 2 0 2.8L36 67c-1 .7-2.2.7-3 0-.7-.8-.7-2 0-3l3-2.7zM50 66c1 0 2 1 2 2v4c0 1-1 2-2 2s-2-1-2-2v-4c0-1 1-2 2-2zm14-4.7l3 2.8c.7 1 .7 2.3 0 3-.8.8-2 .8-3 0l-2.7-3c-.8-.5-.8-2 0-2.6.8-.8 2-.8 2.8 0z"/></svg>